Patient4_TMGait_0pt4_01_right_13_EMG.mot
version=1
nRows=13
nColumns=33
inDegrees=no
endheader
time	1LAddLong	2LGlutMax	3LGlutMed	4LIliopsoas	5LSemiMemb	6LBicFemLong	7LRecFem	8LVastMed	9LVastLat	10LGasMed	11LTibAnt	12lTibPost	13LPeroneusLong	14LSol	15LExtDigLong	16LFlexDigLong	17RAddLong	18RGlutMax	19RGlutMed	20RIliopsoas	21RSemiMemb	22RBicFemLong	23RRecFem	24RVastMed	25RVastLat	26RGasMed	27RTibAnt	28RTibPost	29RPeroneusLong	30RSol	31RExtDigLong	32RFlexDigLong
17.19	0.000305	-0.20813	0.040588	-0.01297	-0.016937	-0.036163	-0.08667	-0.005951	0.027771	-0.019989	-0.03418	0.022736	-0.11017	0.056152	0.007629	0.008392	-0.022736	-1.6019	-1.0487	0.081635	-0.036011	-0.45151	0.41428	0.087433	0.027771	-0.008545	0.069122	-0.011902	0.31097	0.018463	-0.003204	0.000305
17.191	-0.000153	-0.23361	0.06134	-0.016479	-0.004272	-0.051575	-0.11429	-0.002594	0.020142	-0.005951	-0.031281	0.025482	-0.14572	0.014038	0.35614	0.011749	-0.007324	-1.651	-1.0423	0.19241	-0.07843	-0.5513	0.37491	0.027771	0.033417	0.000458	0.050049	0.009918	0.22675	-0.057831	-0.002899	-0.00061
17.192	-0.001831	-0.22995	0.048828	0.00885	-0.010681	-0.059967	-0.11124	0.008392	0.027466	-0.002899	0.00351	0.033722	-0.11826	-0.068817	0.075531	0.00351	-0.004883	-1.7174	-0.87814	0.20844	-0.080566	-0.38361	0.40131	0.024109	-0.006256	0.009155	0.053253	0.006104	0.097046	-0.14145	-0.001373	0.005188
17.193	0.005493	-0.23636	0.033722	0.009155	-0.006866	-0.045471	-0.072479	0.005798	0.011139	-0.008545	0.027771	0.037689	-0.095673	0.059204	-0.11017	0.015106	0.007477	-1.7247	-0.34042	0.049591	-0.11551	-0.32318	0.27832	-0.074005	-0.001984	0.006104	0.11383	0.000916	0.93674	-0.13107	-0.002136	0.001068
17.194	0.008087	-0.19028	0.044708	-0.019836	0.001678	-0.044098	-0.039368	0.011139	-0.004272	0.004425	-0.008087	0.029297	-0.084534	0.070801	-0.12573	-0.00351	0.009766	-1.7694	-0.60394	-0.030518	-0.27893	-0.35751	0.28351	-0.1091	-0.011292	-0.015259	0.24796	-0.006866	0.34927	0.065155	-0.000763	0.005035
17.195	0.001373	-0.19196	0.052643	-0.005035	0.00412	-0.058441	-0.042419	0.013885	-0.032196	-0.003204	0.006409	0.036011	-0.087433	0.08728	-0.11017	-0.005341	0.034637	-1.7892	-0.83359	0.086212	-0.34637	-0.30212	0.35263	-0.092926	-0.02243	-0.015106	0.2214	0.000916	0.094299	-0.031281	-0.002441	0.013123
17.196	0.000305	-0.21851	0.036011	0.010529	-0.000458	-0.050659	-0.061951	0.018768	-0.041962	-0.020447	-0.000305	0.028381	-0.076294	0.093689	-0.067596	-0.00885	0.03067	-1.8384	-1.2166	0.15167	-0.18646	-0.11902	0.50323	-0.017853	-0.095215	-0.001068	0.10605	0.001831	0.86029	-0.090332	-0.002899	0.020905
17.197	0.001526	-0.24216	0.055542	0.005951	-0.005035	-0.048065	-0.016327	0.016632	-0.040588	-0.003357	0.002594	0.023041	-0.059052	0.090485	-0.00412	0.003204	0.005798	-1.8314	-1.2337	0.18494	0.32669	-0.005188	0.57266	0.02121	-0.18234	0.000916	0.015564	-0.005798	1.2314	-0.001831	-0.002289	0.014343
17.198	-0.001373	-0.25803	0.054779	-0.004883	0.001678	-0.039215	0.027313	0.023499	-0.055389	0.018463	-0.010986	0.019226	-0.077972	0.034485	0.002899	-0.016479	0.02121	-1.6827	-0.86289	0.13718	0.25925	0.25345	0.29587	0.007629	-0.20294	0	0.024414	-0.001221	-1.6901	-0.14435	-0.002289	0.010223
17.199	-0.005798	-0.25864	0.037231	0.002747	-0.011139	-0.036926	0.051575	0.027008	-0.042725	0.20508	-0.058136	0.0177	-0.075531	-0.048218	0.023651	-0.027008	0.041351	-1.5871	-0.62805	0.087891	0.13153	0.49057	-0.10986	0.056915	-0.057526	-0.003815	-0.011597	-0.001984	-2.0789	-0.082703	-0.002594	0.002899
17.2	-0.002441	-0.25696	0.057068	0.009766	-0.00946	-0.037689	0.078278	0.019531	-0.032501	0.3833	-0.068512	0.015717	-0.068054	-0.016479	0.059509	-0.03067	0.033722	-1.479	-0.30182	-0.047455	-0.001221	0.47226	-0.39154	-0.06424	0.14572	-0.003357	-0.01358	-0.000458	-1.2129	-0.080109	-0.001678	0.007019
17.201	0.005646	-0.25467	0.050201	0.000763	-0.00885	-0.026703	0.074158	0.024872	-0.017395	0.48614	-0.093536	0.00946	-0.04364	0.051727	0.055389	-0.008698	-0.014191	-1.3112	0.37277	-0.097504	0.07431	0.40039	-0.60959	-0.041351	0.46783	-0.016327	-0.023346	-0.006104	0.40558	0.019531	-0.000458	0.000305
17.202	-0.00473	-0.2861	0.005951	0.001526	-0.019226	-0.024109	0.057068	0.025787	-0.011597	0.33661	-0.076447	0.009918	-0.011292	0.049133	0.022125	-0.02594	-0.007172	-1.163	-0.17899	-0.14084	-0.004578	0.29007	-0.77484	0.21454	0.60074	-0.012665	0.12894	-0.006866	1.1148	0.1532	-0.000763	-0.009155
